<svg width="160" height="115" viewBox="0 0 160 115" fill="none" xmlns="http://www.w3.org/2000/svg">
<path d="M143.287 96C142.647 96 142.231 95.68 142.039 95.04L139.159 85.632C139.031 85.376 138.871 85.248 138.679 85.248H115.063C114.871 85.248 114.711 85.376 114.583 85.632L111.799 95.04C111.607 95.68 111.191 96 110.551 96H98.3592C97.9752 96 97.6872 95.904 97.4952 95.712C97.3032 95.456 97.2712 95.104 97.3992 94.656L118.135 29.76C118.327 29.12 118.743 28.8 119.383 28.8H134.455C135.095 28.8 135.511 29.12 135.703 29.76L156.439 94.656C156.503 94.784 156.535 94.944 156.535 95.136C156.535 95.712 156.183 96 155.479 96H143.287ZM118.039 74.208C117.975 74.592 118.103 74.784 118.423 74.784H135.319C135.703 74.784 135.831 74.592 135.703 74.208L127.063 45.696C126.999 45.44 126.903 45.344 126.775 45.408C126.647 45.408 126.551 45.504 126.487 45.696L118.039 74.208Z" fill="#C21818"/>
<path d="M138.287 96C137.647 96 137.231 95.68 137.039 95.04L134.159 85.632C134.031 85.376 133.871 85.248 133.679 85.248H110.063C109.871 85.248 109.711 85.376 109.583 85.632L106.799 95.04C106.607 95.68 106.191 96 105.551 96H93.3592C92.9752 96 92.6872 95.904 92.4952 95.712C92.3032 95.456 92.2712 95.104 92.3992 94.656L113.135 29.76C113.327 29.12 113.743 28.8 114.383 28.8H129.455C130.095 28.8 130.511 29.12 130.703 29.76L151.439 94.656C151.503 94.784 151.535 94.944 151.535 95.136C151.535 95.712 151.183 96 150.479 96H138.287ZM113.039 74.208C112.975 74.592 113.103 74.784 113.423 74.784H130.319C130.703 74.784 130.831 74.592 130.703 74.208L122.063 45.696C121.999 45.44 121.903 45.344 121.775 45.408C121.647 45.408 121.551 45.504 121.487 45.696L113.039 74.208Z" fill="#F41F1F"/>
<path d="M132.287 96C131.647 96 131.231 95.68 131.039 95.04L128.159 85.632C128.031 85.376 127.871 85.248 127.679 85.248H104.063C103.871 85.248 103.711 85.376 103.583 85.632L100.799 95.04C100.607 95.68 100.191 96 99.5512 96H87.3592C86.9752 96 86.6872 95.904 86.4952 95.712C86.3032 95.456 86.2712 95.104 86.3992 94.656L107.135 29.76C107.327 29.12 107.743 28.8 108.383 28.8H123.455C124.095 28.8 124.511 29.12 124.703 29.76L145.439 94.656C145.503 94.784 145.535 94.944 145.535 95.136C145.535 95.712 145.183 96 144.479 96H132.287ZM107.039 74.208C106.975 74.592 107.103 74.784 107.423 74.784H124.319C124.703 74.784 124.831 74.592 124.703 74.208L116.063 45.696C115.999 45.44 115.903 45.344 115.775 45.408C115.647 45.408 115.551 45.504 115.487 45.696L107.039 74.208Z" fill="white"/>
<path d="M20.8712 64.32C18.7112 64.32 16.8312 63.92 15.2312 63.12C13.6312 62.32 12.3912 61.2 11.5112 59.76C10.6312 58.32 10.1912 56.64 10.1912 54.72V52.6C10.1912 52.4133 10.2445 52.2667 10.3512 52.16C10.4578 52.0533 10.6045 52 10.7912 52H17.1112C17.2978 52 17.4445 52.0533 17.5512 52.16C17.6578 52.2667 17.7112 52.4133 17.7112 52.6V54.68C17.7112 55.64 17.9912 56.4133 18.5512 57C19.1112 57.5867 19.8845 57.88 20.8712 57.88C21.8312 57.88 22.6178 57.5867 23.2312 57C23.8445 56.4133 24.1512 55.64 24.1512 54.68V36.6C24.1512 36.4133 24.2045 36.2667 24.3112 36.16C24.4178 36.0533 24.5645 36 24.7512 36H31.0312C31.2178 36 31.3645 36.0533 31.4712 36.16C31.5778 36.2667 31.6312 36.4133 31.6312 36.6V54.72C31.6312 56.6133 31.1778 58.2933 30.2712 59.76C29.3645 61.2 28.0978 62.32 26.4712 63.12C24.8445 63.92 22.9778 64.32 20.8712 64.32ZM45.5877 64.48C43.3744 64.48 41.4144 64.04 39.7077 63.16C38.0277 62.2533 36.7211 61 35.7877 59.4C34.8544 57.7733 34.3877 55.8933 34.3877 53.76V46.24C34.3877 44.16 34.8544 42.32 35.7877 40.72C36.7211 39.12 38.0277 37.88 39.7077 37C41.4144 36.12 43.3744 35.68 45.5877 35.68C47.8277 35.68 49.7877 36.12 51.4677 37C53.1744 37.88 54.4944 39.12 55.4277 40.72C56.3611 42.32 56.8277 44.16 56.8277 46.24V53.76C56.8277 55.8933 56.3611 57.7733 55.4277 59.4C54.4944 61 53.1744 62.2533 51.4677 63.16C49.7877 64.04 47.8277 64.48 45.5877 64.48ZM45.5877 58.04C46.7077 58.04 47.6011 57.68 48.2677 56.96C48.9611 56.2133 49.3077 55.2267 49.3077 54V46.16C49.3077 44.9333 48.9611 43.96 48.2677 43.24C47.6011 42.4933 46.7077 42.12 45.5877 42.12C44.4944 42.12 43.6011 42.4933 42.9077 43.24C42.2411 43.96 41.9077 44.9333 41.9077 46.16V54C41.9077 55.2267 42.2411 56.2133 42.9077 56.96C43.6011 57.68 44.4944 58.04 45.5877 58.04ZM70.2715 64.32C68.0848 64.32 66.1515 63.88 64.4715 63C62.8182 62.12 61.5248 60.88 60.5915 59.28C59.6848 57.68 59.2315 55.84 59.2315 53.76V46.2C59.2315 44.12 59.6848 42.2933 60.5915 40.72C61.5248 39.12 62.8182 37.88 64.4715 37C66.1515 36.12 68.0848 35.68 70.2715 35.68C72.4048 35.68 74.3115 36.1067 75.9915 36.96C77.6715 37.7867 78.9648 38.92 79.8715 40.36C80.8048 41.8 81.2715 43.3733 81.2715 45.08V45.12C81.2715 45.3067 81.2182 45.4533 81.1115 45.56C81.0048 45.6667 80.8582 45.72 80.6715 45.72H74.3915C73.9915 45.72 73.7915 45.6 73.7915 45.36C73.7915 44.48 73.4715 43.72 72.8315 43.08C72.2182 42.44 71.3648 42.12 70.2715 42.12C69.2048 42.12 68.3515 42.48 67.7115 43.2C67.0715 43.8933 66.7515 44.8267 66.7515 46V54C66.7515 55.1467 67.1115 56.08 67.8315 56.8C68.5782 57.52 69.4982 57.88 70.5915 57.88C71.5782 57.88 72.3782 57.6133 72.9915 57.08C73.6315 56.52 73.9515 55.76 73.9515 54.8V54.28C73.9515 54.1467 73.8848 54.08 73.7515 54.08H70.2315C70.0448 54.08 69.8982 54.0267 69.7915 53.92C69.6848 53.8133 69.6315 53.6667 69.6315 53.48V48.68C69.6315 48.4933 69.6848 48.3467 69.7915 48.24C69.8982 48.1333 70.0448 48.08 70.2315 48.08H80.6715C80.8582 48.08 81.0048 48.1333 81.1115 48.24C81.2182 48.3467 81.2715 48.4933 81.2715 48.68V54.16C81.2715 56.1333 80.8048 57.8933 79.8715 59.44C78.9648 60.9867 77.6715 62.1867 75.9915 63.04C74.3382 63.8933 72.4315 64.32 70.2715 64.32ZM94.8846 64.48C92.6713 64.48 90.7113 64.04 89.0046 63.16C87.3246 62.2533 86.018 61 85.0846 59.4C84.1513 57.7733 83.6846 55.8933 83.6846 53.76V46.24C83.6846 44.16 84.1513 42.32 85.0846 40.72C86.018 39.12 87.3246 37.88 89.0046 37C90.7113 36.12 92.6713 35.68 94.8846 35.68C97.1246 35.68 99.0846 36.12 100.765 37C102.471 37.88 103.791 39.12 104.725 40.72C105.658 42.32 106.125 44.16 106.125 46.24V53.76C106.125 55.8933 105.658 57.7733 104.725 59.4C103.791 61 102.471 62.2533 100.765 63.16C99.0846 64.04 97.1246 64.48 94.8846 64.48ZM94.8846 58.04C96.0046 58.04 96.898 57.68 97.5646 56.96C98.258 56.2133 98.6046 55.2267 98.6046 54V46.16C98.6046 44.9333 98.258 43.96 97.5646 43.24C96.898 42.4933 96.0046 42.12 94.8846 42.12C93.7913 42.12 92.898 42.4933 92.2046 43.24C91.538 43.96 91.2046 44.9333 91.2046 46.16V54C91.2046 55.2267 91.538 56.2133 92.2046 56.96C92.898 57.68 93.7913 58.04 94.8846 58.04Z" fill="#C21818"/>
<path d="M11.1623 88.6055C9.00232 88.6055 7.12232 88.2055 5.52232 87.4055C3.92232 86.6055 2.68232 85.4855 1.80232 84.0455C0.922319 82.6055 0.482319 80.9255 0.482319 79.0055V76.8855C0.482319 76.6989 0.535653 76.5522 0.642319 76.4455C0.748986 76.3389 0.895653 76.2855 1.08232 76.2855H7.40232C7.58899 76.2855 7.73565 76.3389 7.84232 76.4455C7.94899 76.5522 8.00232 76.6989 8.00232 76.8855V78.9655C8.00232 79.9255 8.28232 80.6989 8.84232 81.2855C9.40232 81.8722 10.1757 82.1655 11.1623 82.1655C12.1223 82.1655 12.909 81.8722 13.5223 81.2855C14.1357 80.6989 14.4423 79.9255 14.4423 78.9655V60.8855C14.4423 60.6989 14.4957 60.5522 14.6023 60.4455C14.709 60.3389 14.8557 60.2855 15.0423 60.2855H21.3223C21.509 60.2855 21.6557 60.3389 21.7623 60.4455C21.869 60.5522 21.9223 60.6989 21.9223 60.8855V79.0055C21.9223 80.8989 21.469 82.5789 20.5623 84.0455C19.6557 85.4855 18.389 86.6055 16.7623 87.4055C15.1357 88.2055 13.269 88.6055 11.1623 88.6055ZM35.8789 88.7655C33.6655 88.7655 31.7055 88.3255 29.9989 87.4455C28.3189 86.5389 27.0122 85.2855 26.0789 83.6855C25.1455 82.0589 24.6789 80.1789 24.6789 78.0455V70.5255C24.6789 68.4455 25.1455 66.6055 26.0789 65.0055C27.0122 63.4055 28.3189 62.1655 29.9989 61.2855C31.7055 60.4055 33.6655 59.9655 35.8789 59.9655C38.1189 59.9655 40.0789 60.4055 41.7589 61.2855C43.4655 62.1655 44.7855 63.4055 45.7189 65.0055C46.6522 66.6055 47.1189 68.4455 47.1189 70.5255V78.0455C47.1189 80.1789 46.6522 82.0589 45.7189 83.6855C44.7855 85.2855 43.4655 86.5389 41.7589 87.4455C40.0789 88.3255 38.1189 88.7655 35.8789 88.7655ZM35.8789 82.3255C36.9989 82.3255 37.8922 81.9655 38.5589 81.2455C39.2522 80.4989 39.5989 79.5122 39.5989 78.2855V70.4455C39.5989 69.2189 39.2522 68.2455 38.5589 67.5255C37.8922 66.7789 36.9989 66.4055 35.8789 66.4055C34.7855 66.4055 33.8922 66.7789 33.1989 67.5255C32.5322 68.2455 32.1989 69.2189 32.1989 70.4455V78.2855C32.1989 79.5122 32.5322 80.4989 33.1989 81.2455C33.8922 81.9655 34.7855 82.3255 35.8789 82.3255ZM60.5626 88.6055C58.376 88.6055 56.4426 88.1655 54.7626 87.2855C53.1093 86.4055 51.816 85.1655 50.8826 83.5655C49.976 81.9655 49.5226 80.1255 49.5226 78.0455V70.4855C49.5226 68.4055 49.976 66.5789 50.8826 65.0055C51.816 63.4055 53.1093 62.1655 54.7626 61.2855C56.4426 60.4055 58.376 59.9655 60.5626 59.9655C62.696 59.9655 64.6026 60.3922 66.2826 61.2455C67.9626 62.0722 69.256 63.2055 70.1626 64.6455C71.096 66.0855 71.5626 67.6589 71.5626 69.3655V69.4055C71.5626 69.5922 71.5093 69.7389 71.4026 69.8455C71.296 69.9522 71.1493 70.0055 70.9626 70.0055H64.6826C64.2826 70.0055 64.0826 69.8855 64.0826 69.6455C64.0826 68.7655 63.7626 68.0055 63.1226 67.3655C62.5093 66.7255 61.656 66.4055 60.5626 66.4055C59.496 66.4055 58.6426 66.7655 58.0026 67.4855C57.3626 68.1789 57.0426 69.1122 57.0426 70.2855V78.2855C57.0426 79.4322 57.4026 80.3655 58.1226 81.0855C58.8693 81.8055 59.7893 82.1655 60.8826 82.1655C61.8693 82.1655 62.6693 81.8989 63.2826 81.3655C63.9226 80.8055 64.2426 80.0455 64.2426 79.0855V78.5655C64.2426 78.4322 64.176 78.3655 64.0426 78.3655H60.5226C60.336 78.3655 60.1893 78.3122 60.0826 78.2055C59.976 78.0989 59.9226 77.9522 59.9226 77.7655V72.9655C59.9226 72.7789 59.976 72.6322 60.0826 72.5255C60.1893 72.4189 60.336 72.3655 60.5226 72.3655H70.9626C71.1493 72.3655 71.296 72.4189 71.4026 72.5255C71.5093 72.6322 71.5626 72.7789 71.5626 72.9655V78.4455C71.5626 80.4189 71.096 82.1789 70.1626 83.7255C69.256 85.2722 67.9626 86.4722 66.2826 87.3255C64.6293 88.1789 62.7226 88.6055 60.5626 88.6055ZM85.1758 88.7655C82.9624 88.7655 81.0024 88.3255 79.2958 87.4455C77.6158 86.5389 76.3091 85.2855 75.3758 83.6855C74.4424 82.0589 73.9758 80.1789 73.9758 78.0455V70.5255C73.9758 68.4455 74.4424 66.6055 75.3758 65.0055C76.3091 63.4055 77.6158 62.1655 79.2958 61.2855C81.0024 60.4055 82.9624 59.9655 85.1758 59.9655C87.4158 59.9655 89.3758 60.4055 91.0558 61.2855C92.7624 62.1655 94.0824 63.4055 95.0158 65.0055C95.9491 66.6055 96.4158 68.4455 96.4158 70.5255V78.0455C96.4158 80.1789 95.9491 82.0589 95.0158 83.6855C94.0824 85.2855 92.7624 86.5389 91.0558 87.4455C89.3758 88.3255 87.4158 88.7655 85.1758 88.7655ZM85.1758 82.3255C86.2958 82.3255 87.1891 81.9655 87.8558 81.2455C88.5491 80.4989 88.8958 79.5122 88.8958 78.2855V70.4455C88.8958 69.2189 88.5491 68.2455 87.8558 67.5255C87.1891 66.7789 86.2958 66.4055 85.1758 66.4055C84.0824 66.4055 83.1891 66.7789 82.4958 67.5255C81.8291 68.2455 81.4958 69.2189 81.4958 70.4455V78.2855C81.4958 79.5122 81.8291 80.4989 82.4958 81.2455C83.1891 81.9655 84.0824 82.3255 85.1758 82.3255Z" fill="#F41F1F"/>
</svg>
