<svg width="160" height="115" viewBox="0 0 160 115" fill="none" xmlns="http://www.w3.org/2000/svg">
<path d="M143.287 96C142.647 96 142.231 95.68 142.039 95.04L139.159 85.632C139.031 85.376 138.871 85.248 138.679 85.248H115.063C114.871 85.248 114.711 85.376 114.583 85.632L111.799 95.04C111.607 95.68 111.191 96 110.551 96H98.3592C97.9752 96 97.6872 95.904 97.4952 95.712C97.3032 95.456 97.2712 95.104 97.3992 94.656L118.135 29.76C118.327 29.12 118.743 28.8 119.383 28.8H134.455C135.095 28.8 135.511 29.12 135.703 29.76L156.439 94.656C156.503 94.784 156.535 94.944 156.535 95.136C156.535 95.712 156.183 96 155.479 96H143.287ZM118.039 74.208C117.975 74.592 118.103 74.784 118.423 74.784H135.319C135.703 74.784 135.831 74.592 135.703 74.208L127.063 45.696C126.999 45.44 126.903 45.344 126.775 45.408C126.647 45.408 126.551 45.504 126.487 45.696L118.039 74.208Z" fill="#17F0D2"/>
<path d="M138.287 96C137.647 96 137.231 95.68 137.039 95.04L134.159 85.632C134.031 85.376 133.871 85.248 133.679 85.248H110.063C109.871 85.248 109.711 85.376 109.583 85.632L106.799 95.04C106.607 95.68 106.191 96 105.551 96H93.3592C92.9752 96 92.6872 95.904 92.4952 95.712C92.3032 95.456 92.2712 95.104 92.3992 94.656L113.135 29.76C113.327 29.12 113.743 28.8 114.383 28.8H129.455C130.095 28.8 130.511 29.12 130.703 29.76L151.439 94.656C151.503 94.784 151.535 94.944 151.535 95.136C151.535 95.712 151.183 96 150.479 96H138.287ZM113.039 74.208C112.975 74.592 113.103 74.784 113.423 74.784H130.319C130.703 74.784 130.831 74.592 130.703 74.208L122.063 45.696C121.999 45.44 121.903 45.344 121.775 45.408C121.647 45.408 121.551 45.504 121.487 45.696L113.039 74.208Z" fill="#F03230"/>
<path d="M132.287 96C131.647 96 131.231 95.68 131.039 95.04L128.159 85.632C128.031 85.376 127.871 85.248 127.679 85.248H104.063C103.871 85.248 103.711 85.376 103.583 85.632L100.799 95.04C100.607 95.68 100.191 96 99.5512 96H87.3592C86.9752 96 86.6872 95.904 86.4952 95.712C86.3032 95.456 86.2712 95.104 86.3992 94.656L107.135 29.76C107.327 29.12 107.743 28.8 108.383 28.8H123.455C124.095 28.8 124.511 29.12 124.703 29.76L145.439 94.656C145.503 94.784 145.535 94.944 145.535 95.136C145.535 95.712 145.183 96 144.479 96H132.287ZM107.039 74.208C106.975 74.592 107.103 74.784 107.423 74.784H124.319C124.703 74.784 124.831 74.592 124.703 74.208L116.063 45.696C115.999 45.44 115.903 45.344 115.775 45.408C115.647 45.408 115.551 45.504 115.487 45.696L107.039 74.208Z" fill="white"/>
<path d="M20.8712 64.32C18.7112 64.32 16.8312 63.92 15.2312 63.12C13.6312 62.32 12.3912 61.2 11.5112 59.76C10.6312 58.32 10.1912 56.64 10.1912 54.72V52.6C10.1912 52.4133 10.2445 52.2667 10.3512 52.16C10.4578 52.0533 10.6045 52 10.7912 52H17.1112C17.2978 52 17.4445 52.0533 17.5512 52.16C17.6578 52.2667 17.7112 52.4133 17.7112 52.6V54.68C17.7112 55.64 17.9912 56.4133 18.5512 57C19.1112 57.5867 19.8845 57.88 20.8712 57.88C21.8312 57.88 22.6178 57.5867 23.2312 57C23.8445 56.4133 24.1512 55.64 24.1512 54.68V36.6C24.1512 36.4133 24.2045 36.2667 24.3112 36.16C24.4178 36.0533 24.5645 36 24.7512 36H31.0312C31.2178 36 31.3645 36.0533 31.4712 36.16C31.5778 36.2667 31.6312 36.4133 31.6312 36.6V54.72C31.6312 56.6133 31.1778 58.2933 30.2712 59.76C29.3645 61.2 28.0978 62.32 26.4712 63.12C24.8445 63.92 22.9778 64.32 20.8712 64.32ZM45.5877 64.48C43.3744 64.48 41.4144 64.04 39.7077 63.16C38.0277 62.2533 36.7211 61 35.7877 59.4C34.8544 57.7733 34.3877 55.8933 34.3877 53.76V46.24C34.3877 44.16 34.8544 42.32 35.7877 40.72C36.7211 39.12 38.0277 37.88 39.7077 37C41.4144 36.12 43.3744 35.68 45.5877 35.68C47.8277 35.68 49.7877 36.12 51.4677 37C53.1744 37.88 54.4944 39.12 55.4277 40.72C56.3611 42.32 56.8277 44.16 56.8277 46.24V53.76C56.8277 55.8933 56.3611 57.7733 55.4277 59.4C54.4944 61 53.1744 62.2533 51.4677 63.16C49.7877 64.04 47.8277 64.48 45.5877 64.48ZM45.5877 58.04C46.7077 58.04 47.6011 57.68 48.2677 56.96C48.9611 56.2133 49.3077 55.2267 49.3077 54V46.16C49.3077 44.9333 48.9611 43.96 48.2677 43.24C47.6011 42.4933 46.7077 42.12 45.5877 42.12C44.4944 42.12 43.6011 42.4933 42.9077 43.24C42.2411 43.96 41.9077 44.9333 41.9077 46.16V54C41.9077 55.2267 42.2411 56.2133 42.9077 56.96C43.6011 57.68 44.4944 58.04 45.5877 58.04ZM70.2715 64.32C68.0848 64.32 66.1515 63.88 64.4715 63C62.8182 62.12 61.5248 60.88 60.5915 59.28C59.6848 57.68 59.2315 55.84 59.2315 53.76V46.2C59.2315 44.12 59.6848 42.2933 60.5915 40.72C61.5248 39.12 62.8182 37.88 64.4715 37C66.1515 36.12 68.0848 35.68 70.2715 35.68C72.4048 35.68 74.3115 36.1067 75.9915 36.96C77.6715 37.7867 78.9648 38.92 79.8715 40.36C80.8048 41.8 81.2715 43.3733 81.2715 45.08V45.12C81.2715 45.3067 81.2182 45.4533 81.1115 45.56C81.0048 45.6667 80.8582 45.72 80.6715 45.72H74.3915C73.9915 45.72 73.7915 45.6 73.7915 45.36C73.7915 44.48 73.4715 43.72 72.8315 43.08C72.2182 42.44 71.3648 42.12 70.2715 42.12C69.2048 42.12 68.3515 42.48 67.7115 43.2C67.0715 43.8933 66.7515 44.8267 66.7515 46V54C66.7515 55.1467 67.1115 56.08 67.8315 56.8C68.5782 57.52 69.4982 57.88 70.5915 57.88C71.5782 57.88 72.3782 57.6133 72.9915 57.08C73.6315 56.52 73.9515 55.76 73.9515 54.8V54.28C73.9515 54.1467 73.8848 54.08 73.7515 54.08H70.2315C70.0448 54.08 69.8982 54.0267 69.7915 53.92C69.6848 53.8133 69.6315 53.6667 69.6315 53.48V48.68C69.6315 48.4933 69.6848 48.3467 69.7915 48.24C69.8982 48.1333 70.0448 48.08 70.2315 48.08H80.6715C80.8582 48.08 81.0048 48.1333 81.1115 48.24C81.2182 48.3467 81.2715 48.4933 81.2715 48.68V54.16C81.2715 56.1333 80.8048 57.8933 79.8715 59.44C78.9648 60.9867 77.6715 62.1867 75.9915 63.04C74.3382 63.8933 72.4315 64.32 70.2715 64.32ZM94.8846 64.48C92.6713 64.48 90.7113 64.04 89.0046 63.16C87.3246 62.2533 86.018 61 85.0846 59.4C84.1513 57.7733 83.6846 55.8933 83.6846 53.76V46.24C83.6846 44.16 84.1513 42.32 85.0846 40.72C86.018 39.12 87.3246 37.88 89.0046 37C90.7113 36.12 92.6713 35.68 94.8846 35.68C97.1246 35.68 99.0846 36.12 100.765 37C102.471 37.88 103.791 39.12 104.725 40.72C105.658 42.32 106.125 44.16 106.125 46.24V53.76C106.125 55.8933 105.658 57.7733 104.725 59.4C103.791 61 102.471 62.2533 100.765 63.16C99.0846 64.04 97.1246 64.48 94.8846 64.48ZM94.8846 58.04C96.0046 58.04 96.898 57.68 97.5646 56.96C98.258 56.2133 98.6046 55.2267 98.6046 54V46.16C98.6046 44.9333 98.258 43.96 97.5646 43.24C96.898 42.4933 96.0046 42.12 94.8846 42.12C93.7913 42.12 92.898 42.4933 92.2046 43.24C91.538 43.96 91.2046 44.9333 91.2046 46.16V54C91.2046 55.2267 91.538 56.2133 92.2046 56.96C92.898 57.68 93.7913 58.04 94.8846 58.04Z" fill="#17F0D2"/>
<path d="M11.1623 88.6404C9.00232 88.6404 7.12232 88.2404 5.52232 87.4404C3.92232 86.6404 2.68232 85.5204 1.80232 84.0804C0.922319 82.6404 0.482319 80.9604 0.482319 79.0404V76.9204C0.482319 76.7338 0.535653 76.5871 0.642319 76.4804C0.748986 76.3738 0.895653 76.3204 1.08232 76.3204H7.40232C7.58899 76.3204 7.73565 76.3738 7.84232 76.4804C7.94899 76.5871 8.00232 76.7338 8.00232 76.9204V79.0004C8.00232 79.9604 8.28232 80.7338 8.84232 81.3204C9.40232 81.9071 10.1757 82.2004 11.1623 82.2004C12.1223 82.2004 12.909 81.9071 13.5223 81.3204C14.1357 80.7338 14.4423 79.9604 14.4423 79.0004V60.9204C14.4423 60.7338 14.4957 60.5871 14.6023 60.4804C14.709 60.3738 14.8557 60.3204 15.0423 60.3204H21.3223C21.509 60.3204 21.6557 60.3738 21.7623 60.4804C21.869 60.5871 21.9223 60.7338 21.9223 60.9204V79.0404C21.9223 80.9338 21.469 82.6138 20.5623 84.0804C19.6557 85.5204 18.389 86.6404 16.7623 87.4404C15.1357 88.2404 13.269 88.6404 11.1623 88.6404ZM35.8789 88.8004C33.6655 88.8004 31.7055 88.3604 29.9989 87.4804C28.3189 86.5738 27.0122 85.3204 26.0789 83.7204C25.1455 82.0938 24.6789 80.2138 24.6789 78.0804V70.5604C24.6789 68.4804 25.1455 66.6404 26.0789 65.0404C27.0122 63.4404 28.3189 62.2004 29.9989 61.3204C31.7055 60.4404 33.6655 60.0004 35.8789 60.0004C38.1189 60.0004 40.0789 60.4404 41.7589 61.3204C43.4655 62.2004 44.7855 63.4404 45.7189 65.0404C46.6522 66.6404 47.1189 68.4804 47.1189 70.5604V78.0804C47.1189 80.2138 46.6522 82.0938 45.7189 83.7204C44.7855 85.3204 43.4655 86.5738 41.7589 87.4804C40.0789 88.3604 38.1189 88.8004 35.8789 88.8004ZM35.8789 82.3604C36.9989 82.3604 37.8922 82.0004 38.5589 81.2804C39.2522 80.5338 39.5989 79.5471 39.5989 78.3204V70.4804C39.5989 69.2538 39.2522 68.2804 38.5589 67.5604C37.8922 66.8138 36.9989 66.4404 35.8789 66.4404C34.7855 66.4404 33.8922 66.8138 33.1989 67.5604C32.5322 68.2804 32.1989 69.2538 32.1989 70.4804V78.3204C32.1989 79.5471 32.5322 80.5338 33.1989 81.2804C33.8922 82.0004 34.7855 82.3604 35.8789 82.3604ZM60.5626 88.6404C58.376 88.6404 56.4426 88.2004 54.7626 87.3204C53.1093 86.4404 51.816 85.2004 50.8826 83.6004C49.976 82.0004 49.5226 80.1604 49.5226 78.0804V70.5204C49.5226 68.4404 49.976 66.6138 50.8826 65.0404C51.816 63.4404 53.1093 62.2004 54.7626 61.3204C56.4426 60.4404 58.376 60.0004 60.5626 60.0004C62.696 60.0004 64.6026 60.4271 66.2826 61.2804C67.9626 62.1071 69.256 63.2404 70.1626 64.6804C71.096 66.1204 71.5626 67.6938 71.5626 69.4004V69.4404C71.5626 69.6271 71.5093 69.7738 71.4026 69.8804C71.296 69.9871 71.1493 70.0404 70.9626 70.0404H64.6826C64.2826 70.0404 64.0826 69.9204 64.0826 69.6804C64.0826 68.8004 63.7626 68.0404 63.1226 67.4004C62.5093 66.7604 61.656 66.4404 60.5626 66.4404C59.496 66.4404 58.6426 66.8004 58.0026 67.5204C57.3626 68.2138 57.0426 69.1471 57.0426 70.3204V78.3204C57.0426 79.4671 57.4026 80.4004 58.1226 81.1204C58.8693 81.8404 59.7893 82.2004 60.8826 82.2004C61.8693 82.2004 62.6693 81.9338 63.2826 81.4004C63.9226 80.8404 64.2426 80.0804 64.2426 79.1204V78.6004C64.2426 78.4671 64.176 78.4004 64.0426 78.4004H60.5226C60.336 78.4004 60.1893 78.3471 60.0826 78.2404C59.976 78.1338 59.9226 77.9871 59.9226 77.8004V73.0004C59.9226 72.8138 59.976 72.6671 60.0826 72.5604C60.1893 72.4538 60.336 72.4004 60.5226 72.4004H70.9626C71.1493 72.4004 71.296 72.4538 71.4026 72.5604C71.5093 72.6671 71.5626 72.8138 71.5626 73.0004V78.4804C71.5626 80.4538 71.096 82.2138 70.1626 83.7604C69.256 85.3071 67.9626 86.5071 66.2826 87.3604C64.6293 88.2138 62.7226 88.6404 60.5626 88.6404ZM85.1758 88.8004C82.9624 88.8004 81.0024 88.3604 79.2958 87.4804C77.6158 86.5738 76.3091 85.3204 75.3758 83.7204C74.4424 82.0938 73.9758 80.2138 73.9758 78.0804V70.5604C73.9758 68.4804 74.4424 66.6404 75.3758 65.0404C76.3091 63.4404 77.6158 62.2004 79.2958 61.3204C81.0024 60.4404 82.9624 60.0004 85.1758 60.0004C87.4158 60.0004 89.3758 60.4404 91.0558 61.3204C92.7624 62.2004 94.0824 63.4404 95.0158 65.0404C95.9491 66.6404 96.4158 68.4804 96.4158 70.5604V78.0804C96.4158 80.2138 95.9491 82.0938 95.0158 83.7204C94.0824 85.3204 92.7624 86.5738 91.0558 87.4804C89.3758 88.3604 87.4158 88.8004 85.1758 88.8004ZM85.1758 82.3604C86.2958 82.3604 87.1891 82.0004 87.8558 81.2804C88.5491 80.5338 88.8958 79.5471 88.8958 78.3204V70.4804C88.8958 69.2538 88.5491 68.2804 87.8558 67.5604C87.1891 66.8138 86.2958 66.4404 85.1758 66.4404C84.0824 66.4404 83.1891 66.8138 82.4958 67.5604C81.8291 68.2804 81.4958 69.2538 81.4958 70.4804V78.3204C81.4958 79.5471 81.8291 80.5338 82.4958 81.2804C83.1891 82.0004 84.0824 82.3604 85.1758 82.3604Z" fill="#F03230"/>
</svg>
