<svg width="157" height="68" viewBox="0 0 157 68" fill="none" xmlns="http://www.w3.org/2000/svg">
<path d="M143.096 67.2C142.456 67.2 142.04 66.88 141.848 66.24L138.968 56.832C138.84 56.576 138.68 56.448 138.488 56.448H114.872C114.68 56.448 114.52 56.576 114.392 56.832L111.608 66.24C111.416 66.88 111 67.2 110.36 67.2H98.168C97.784 67.2 97.496 67.104 97.304 66.912C97.112 66.656 97.08 66.304 97.208 65.856L117.944 0.959999C118.136 0.32 118.552 0 119.192 0H134.264C134.904 0 135.32 0.32 135.512 0.959999L156.248 65.856C156.312 65.984 156.344 66.144 156.344 66.336C156.344 66.912 155.992 67.2 155.288 67.2H143.096ZM117.848 45.408C117.784 45.792 117.912 45.984 118.232 45.984H135.128C135.512 45.984 135.64 45.792 135.512 45.408L126.872 16.896C126.808 16.64 126.712 16.544 126.584 16.608C126.456 16.608 126.36 16.704 126.296 16.896L117.848 45.408Z" fill="white"/>
<path d="M138.096 67.2C137.456 67.2 137.04 66.88 136.848 66.24L133.968 56.832C133.84 56.576 133.68 56.448 133.488 56.448H109.872C109.68 56.448 109.52 56.576 109.392 56.832L106.608 66.24C106.416 66.88 106 67.2 105.36 67.2H93.168C92.784 67.2 92.496 67.104 92.304 66.912C92.112 66.656 92.08 66.304 92.208 65.856L112.944 0.959999C113.136 0.32 113.552 0 114.192 0H129.264C129.904 0 130.32 0.32 130.512 0.959999L151.248 65.856C151.312 65.984 151.344 66.144 151.344 66.336C151.344 66.912 150.992 67.2 150.288 67.2H138.096ZM112.848 45.408C112.784 45.792 112.912 45.984 113.232 45.984H130.128C130.512 45.984 130.64 45.792 130.512 45.408L121.872 16.896C121.808 16.64 121.712 16.544 121.584 16.608C121.456 16.608 121.36 16.704 121.296 16.896L112.848 45.408Z" fill="white"/>
<path d="M132.096 67.2C131.456 67.2 131.04 66.88 130.848 66.24L127.968 56.832C127.84 56.576 127.68 56.448 127.488 56.448H103.872C103.68 56.448 103.52 56.576 103.392 56.832L100.608 66.24C100.416 66.88 100 67.2 99.36 67.2H87.168C86.784 67.2 86.496 67.104 86.304 66.912C86.112 66.656 86.08 66.304 86.208 65.856L106.944 0.959999C107.136 0.32 107.552 0 108.192 0H123.264C123.904 0 124.32 0.32 124.512 0.959999L145.248 65.856C145.312 65.984 145.344 66.144 145.344 66.336C145.344 66.912 144.992 67.2 144.288 67.2H132.096ZM106.848 45.408C106.784 45.792 106.912 45.984 107.232 45.984H124.128C124.512 45.984 124.64 45.792 124.512 45.408L115.872 16.896C115.808 16.64 115.712 16.544 115.584 16.608C115.456 16.608 115.36 16.704 115.296 16.896L106.848 45.408Z" fill="black"/>
<path d="M20.68 35.52C18.52 35.52 16.64 35.12 15.04 34.32C13.44 33.52 12.2 32.4 11.32 30.96C10.44 29.52 10 27.84 10 25.92V23.8C10 23.6133 10.0533 23.4667 10.16 23.36C10.2667 23.2533 10.4133 23.2 10.6 23.2H16.92C17.1067 23.2 17.2533 23.2533 17.36 23.36C17.4667 23.4667 17.52 23.6133 17.52 23.8V25.88C17.52 26.84 17.8 27.6133 18.36 28.2C18.92 28.7867 19.6933 29.08 20.68 29.08C21.64 29.08 22.4267 28.7867 23.04 28.2C23.6533 27.6133 23.96 26.84 23.96 25.88V7.8C23.96 7.61334 24.0133 7.46667 24.12 7.36C24.2267 7.25334 24.3733 7.2 24.56 7.2H30.84C31.0267 7.2 31.1733 7.25334 31.28 7.36C31.3867 7.46667 31.44 7.61334 31.44 7.8V25.92C31.44 27.8133 30.9867 29.4933 30.08 30.96C29.1733 32.4 27.9067 33.52 26.28 34.32C24.6533 35.12 22.7867 35.52 20.68 35.52Z" fill="white"/>
<path d="M45.3966 35.68C43.1832 35.68 41.2232 35.24 39.5166 34.36C37.8366 33.4533 36.5299 32.2 35.5966 30.6C34.6632 28.9733 34.1966 27.0933 34.1966 24.96V17.44C34.1966 15.36 34.6632 13.52 35.5966 11.92C36.5299 10.32 37.8366 9.08 39.5166 8.2C41.2232 7.32 43.1832 6.88 45.3966 6.88C47.6366 6.88 49.5966 7.32 51.2766 8.2C52.9832 9.08 54.3032 10.32 55.2366 11.92C56.1699 13.52 56.6366 15.36 56.6366 17.44V24.96C56.6366 27.0933 56.1699 28.9733 55.2366 30.6C54.3032 32.2 52.9832 33.4533 51.2766 34.36C49.5966 35.24 47.6366 35.68 45.3966 35.68ZM45.3966 29.24C46.5166 29.24 47.4099 28.88 48.0766 28.16C48.7699 27.4133 49.1166 26.4267 49.1166 25.2V17.36C49.1166 16.1333 48.7699 15.16 48.0766 14.44C47.4099 13.6933 46.5166 13.32 45.3966 13.32C44.3032 13.32 43.4099 13.6933 42.7166 14.44C42.0499 15.16 41.7166 16.1333 41.7166 17.36V25.2C41.7166 26.4267 42.0499 27.4133 42.7166 28.16C43.4099 28.88 44.3032 29.24 45.3966 29.24Z" fill="white"/>
<path d="M70.0803 35.52C67.8936 35.52 65.9603 35.08 64.2803 34.2C62.627 33.32 61.3336 32.08 60.4003 30.48C59.4936 28.88 59.0403 27.04 59.0403 24.96V17.4C59.0403 15.32 59.4936 13.4933 60.4003 11.92C61.3336 10.32 62.627 9.08 64.2803 8.2C65.9603 7.32 67.8936 6.88 70.0803 6.88C72.2136 6.88 74.1203 7.30667 75.8003 8.16C77.4803 8.98667 78.7736 10.12 79.6803 11.56C80.6136 13 81.0803 14.5733 81.0803 16.28V16.32C81.0803 16.5067 81.027 16.6533 80.9203 16.76C80.8136 16.8667 80.667 16.92 80.4803 16.92H74.2003C73.8003 16.92 73.6003 16.8 73.6003 16.56C73.6003 15.68 73.2803 14.92 72.6403 14.28C72.027 13.64 71.1736 13.32 70.0803 13.32C69.0136 13.32 68.1603 13.68 67.5203 14.4C66.8803 15.0933 66.5603 16.0267 66.5603 17.2V25.2C66.5603 26.3467 66.9203 27.28 67.6403 28C68.387 28.72 69.307 29.08 70.4003 29.08C71.387 29.08 72.187 28.8133 72.8003 28.28C73.4403 27.72 73.7603 26.96 73.7603 26V25.48C73.7603 25.3467 73.6936 25.28 73.5603 25.28H70.0403C69.8536 25.28 69.707 25.2267 69.6003 25.12C69.4936 25.0133 69.4403 24.8667 69.4403 24.68V19.88C69.4403 19.6933 69.4936 19.5467 69.6003 19.44C69.707 19.3333 69.8536 19.28 70.0403 19.28H80.4803C80.667 19.28 80.8136 19.3333 80.9203 19.44C81.027 19.5467 81.0803 19.6933 81.0803 19.88V25.36C81.0803 27.3333 80.6136 29.0933 79.6803 30.64C78.7736 32.1867 77.4803 33.3867 75.8003 34.24C74.147 35.0933 72.2403 35.52 70.0803 35.52Z" fill="white"/>
<path d="M94.6934 35.68C92.4801 35.68 90.5201 35.24 88.8134 34.36C87.1334 33.4533 85.8268 32.2 84.8934 30.6C83.9601 28.9733 83.4934 27.0933 83.4934 24.96V17.44C83.4934 15.36 83.9601 13.52 84.8934 11.92C85.8268 10.32 87.1334 9.08 88.8134 8.2C90.5201 7.32 92.4801 6.88 94.6934 6.88C96.9334 6.88 98.8934 7.32 100.573 8.2C102.28 9.08 103.6 10.32 104.533 11.92C105.467 13.52 105.933 15.36 105.933 17.44V24.96C105.933 27.0933 105.467 28.9733 104.533 30.6C103.6 32.2 102.28 33.4533 100.573 34.36C98.8934 35.24 96.9334 35.68 94.6934 35.68ZM94.6934 29.24C95.8134 29.24 96.7068 28.88 97.3734 28.16C98.0668 27.4133 98.4134 26.4267 98.4134 25.2V17.36C98.4134 16.1333 98.0668 15.16 97.3734 14.44C96.7068 13.6933 95.8134 13.32 94.6934 13.32C93.6001 13.32 92.7068 13.6933 92.0134 14.44C91.3468 15.16 91.0134 16.1333 91.0134 17.36V25.2C91.0134 26.4267 91.3468 27.4133 92.0134 28.16C92.7068 28.88 93.6001 29.24 94.6934 29.24Z" fill="white"/>
<path d="M10.68 54.714C8.52 54.714 6.64 54.314 5.04 53.514C3.44 52.714 2.2 51.594 1.32 50.154C0.44 48.714 0 47.034 0 45.114V42.994C0 42.8073 0.0533333 42.6606 0.16 42.554C0.266667 42.4473 0.413333 42.394 0.6 42.394H6.92C7.10667 42.394 7.25333 42.4473 7.36 42.554C7.46667 42.6606 7.52 42.8073 7.52 42.994V45.074C7.52 46.034 7.8 46.8073 8.36 47.394C8.92 47.9806 9.69333 48.274 10.68 48.274C11.64 48.274 12.4267 47.9806 13.04 47.394C13.6533 46.8073 13.96 46.034 13.96 45.074V26.994C13.96 26.8073 14.0133 26.6606 14.12 26.554C14.2267 26.4473 14.3733 26.394 14.56 26.394H20.84C21.0267 26.394 21.1733 26.4473 21.28 26.554C21.3867 26.6606 21.44 26.8073 21.44 26.994V45.114C21.44 47.0073 20.9867 48.6873 20.08 50.154C19.1733 51.594 17.9067 52.714 16.28 53.514C14.6533 54.314 12.7867 54.714 10.68 54.714Z" fill="white"/>
<path d="M35.3966 54.874C33.1832 54.874 31.2232 54.434 29.5166 53.554C27.8366 52.6473 26.5299 51.394 25.5966 49.794C24.6632 48.1673 24.1966 46.2873 24.1966 44.154V36.634C24.1966 34.554 24.6632 32.714 25.5966 31.114C26.5299 29.514 27.8366 28.274 29.5166 27.394C31.2232 26.514 33.1832 26.074 35.3966 26.074C37.6366 26.074 39.5966 26.514 41.2766 27.394C42.9832 28.274 44.3032 29.514 45.2366 31.114C46.1699 32.714 46.6366 34.554 46.6366 36.634V44.154C46.6366 46.2873 46.1699 48.1673 45.2366 49.794C44.3032 51.394 42.9832 52.6473 41.2766 53.554C39.5966 54.434 37.6366 54.874 35.3966 54.874ZM35.3966 48.434C36.5166 48.434 37.4099 48.074 38.0766 47.354C38.7699 46.6073 39.1166 45.6206 39.1166 44.394V36.554C39.1166 35.3273 38.7699 34.354 38.0766 33.634C37.4099 32.8873 36.5166 32.514 35.3966 32.514C34.3032 32.514 33.4099 32.8873 32.7166 33.634C32.0499 34.354 31.7166 35.3273 31.7166 36.554V44.394C31.7166 45.6206 32.0499 46.6073 32.7166 47.354C33.4099 48.074 34.3032 48.434 35.3966 48.434Z" fill="white"/>
<path d="M60.0803 54.714C57.8936 54.714 55.9603 54.274 54.2803 53.394C52.627 52.514 51.3336 51.274 50.4003 49.674C49.4936 48.074 49.0403 46.234 49.0403 44.154V36.594C49.0403 34.514 49.4936 32.6873 50.4003 31.114C51.3336 29.514 52.627 28.274 54.2803 27.394C55.9603 26.514 57.8936 26.074 60.0803 26.074C62.2136 26.074 64.1203 26.5006 65.8003 27.354C67.4803 28.1806 68.7736 29.314 69.6803 30.754C70.6136 32.194 71.0803 33.7673 71.0803 35.474V35.514C71.0803 35.7006 71.027 35.8473 70.9203 35.954C70.8136 36.0606 70.667 36.114 70.4803 36.114H64.2003C63.8003 36.114 63.6003 35.994 63.6003 35.754C63.6003 34.874 63.2803 34.114 62.6403 33.474C62.027 32.834 61.1736 32.514 60.0803 32.514C59.0136 32.514 58.1603 32.874 57.5203 33.594C56.8803 34.2873 56.5603 35.2206 56.5603 36.394V44.394C56.5603 45.5406 56.9203 46.474 57.6403 47.194C58.387 47.914 59.307 48.274 60.4003 48.274C61.387 48.274 62.187 48.0073 62.8003 47.474C63.4403 46.914 63.7603 46.154 63.7603 45.194V44.674C63.7603 44.5406 63.6936 44.474 63.5603 44.474H60.0403C59.8536 44.474 59.707 44.4206 59.6003 44.314C59.4936 44.2073 59.4403 44.0606 59.4403 43.874V39.074C59.4403 38.8873 59.4936 38.7406 59.6003 38.634C59.707 38.5273 59.8536 38.474 60.0403 38.474H70.4803C70.667 38.474 70.8136 38.5273 70.9203 38.634C71.027 38.7406 71.0803 38.8873 71.0803 39.074V44.554C71.0803 46.5273 70.6136 48.2873 69.6803 49.834C68.7736 51.3806 67.4803 52.5806 65.8003 53.434C64.147 54.2873 62.2403 54.714 60.0803 54.714Z" fill="white"/>
<path d="M84.6934 54.874C82.4801 54.874 80.5201 54.434 78.8134 53.554C77.1334 52.6473 75.8268 51.394 74.8934 49.794C73.9601 48.1673 73.4934 46.2873 73.4934 44.154V36.634C73.4934 34.554 73.9601 32.714 74.8934 31.114C75.8268 29.514 77.1334 28.274 78.8134 27.394C80.5201 26.514 82.4801 26.074 84.6934 26.074C86.9334 26.074 88.8934 26.514 90.5734 27.394C92.2801 28.274 93.6001 29.514 94.5334 31.114C95.4668 32.714 95.9334 34.554 95.9334 36.634V44.154C95.9334 46.2873 95.4668 48.1673 94.5334 49.794C93.6001 51.394 92.2801 52.6473 90.5734 53.554C88.8934 54.434 86.9334 54.874 84.6934 54.874ZM84.6934 48.434C85.8134 48.434 86.7068 48.074 87.3734 47.354C88.0668 46.6073 88.4134 45.6206 88.4134 44.394V36.554C88.4134 35.3273 88.0668 34.354 87.3734 33.634C86.7068 32.8873 85.8134 32.514 84.6934 32.514C83.6001 32.514 82.7068 32.8873 82.0134 33.634C81.3468 34.354 81.0134 35.3273 81.0134 36.554V44.394C81.0134 45.6206 81.3468 46.6073 82.0134 47.354C82.7068 48.074 83.6001 48.434 84.6934 48.434Z" fill="white"/>
</svg>
